<?xml version="1.0" encoding="UTF-8" standalone="no"?>
<svg
   xmlns:dc="http://purl.org/dc/elements/1.1/"
   xmlns:cc="http://creativecommons.org/ns#"
   xmlns:rdf="http://www.w3.org/1999/02/22-rdf-syntax-ns#"
   xmlns:svg="http://www.w3.org/2000/svg"
   xmlns="http://www.w3.org/2000/svg"
   id="svg849"
   version="1.1"
   viewBox="0 0 297 210"
   height="210mm"
   width="297mm">
  <defs
     id="defs843" />
  <metadata
     id="metadata846">
    <rdf:RDF>
      <cc:Work
         rdf:about="">
        <dc:format>image/svg+xml</dc:format>
        <dc:type
           rdf:resource="http://purl.org/dc/dcmitype/StillImage" />
        <dc:title></dc:title>
      </cc:Work>
    </rdf:RDF>
  </metadata>
  <g
     transform="translate(0,-87)"
     id="layer1">
    <path
       transform="matrix(1.0132283,0,0,0.79754897,36.317066,72.895195)"
       id="path1790"
       d="m 82.306334,247.39044 c -2.821307,8.49155 -3.134376,17.72492 -4.141883,26.78645 l -0.504085,-0.0458 c 0.626692,-9.06981 0.55769,-18.3143 3.0849,-27.22184 z"
       style="fill:none;stroke:#000000;stroke-width:2.36500001;stroke-linecap:butt;stroke-linejoin:miter;stroke-miterlimit:4;stroke-dasharray:none;stroke-opacity:1" />
    <path
       transform="matrix(1.0132283,0,0,0.79754897,37.580016,74.733383)"
       id="path1800"
       d="m 74.695723,243.74057 c 3.955279,-0.35194 8.010376,-0.68597 12.045119,-0.16534 1.042747,0.12913 2.136183,0.33914 3.170734,0.81885 0,0 10e-7,0 10e-7,1e-5 0.655544,0.28659 1.303108,0.78039 1.699436,1.52828 0.313008,0.68663 0.325845,1.41396 0.161149,2.04639 -0.19492,0.79045 -0.552054,1.48817 -0.937848,2.1158 -1e-6,0 -1e-6,0 -1e-6,0 -1.024531,1.68709 -2.297644,3.1536 -3.507949,4.61192 -1.318235,1.59442 -2.636375,3.16522 -3.706188,4.88088 -0.470039,0.75493 -0.891118,1.52973 -1.183002,2.34285 -0.249455,0.70237 -0.411277,1.4288 -0.367867,2.13594 0.03585,0.67306 0.271969,1.34152 0.665164,1.8977 0.499989,0.71828 1.245916,1.27387 2.050778,1.73296 2.896637,1.64391 6.357807,2.13915 9.752712,2.55728 l -0.0559,0.50307 c -3.411911,-0.33628 -6.947652,-0.77495 -10.045853,-2.42566 -0.875926,-0.46484 -1.71615,-1.07462 -2.338245,-1.90732 -0.492045,-0.66674 -0.795572,-1.46918 -0.86062,-2.3026 -0.06176,-0.85709 0.09819,-1.7015 0.365226,-2.48249 0.305536,-0.90211 0.73718,-1.74515 1.213676,-2.54245 1.080892,-1.81116 2.392478,-3.44914 3.676289,-5.06631 1.186926,-1.50026 2.39948,-2.95088 3.313364,-4.54402 0,0 0,0 10e-7,-1e-5 0.337763,-0.59657 0.635144,-1.18658 0.757407,-1.78416 0.08214,-0.44681 0.08895,-0.8946 -0.09333,-1.2002 0,0 -10e-7,0 -10e-7,0 -0.169186,-0.3826 -0.618735,-0.66289 -1.108848,-0.90316 -10e-7,0 -10e-7,0 -2e-6,0 -0.830493,-0.37851 -1.791377,-0.52761 -2.78531,-0.64272 -3.847623,-0.42489 -7.776862,-0.004 -11.721037,0.42031 z"
       style="fill:none;stroke:#000000;stroke-width:2.36500001;stroke-linecap:butt;stroke-linejoin:miter;stroke-miterlimit:4;stroke-dasharray:none;stroke-opacity:1" />
    <path
       transform="matrix(1.0042312,0,0,0.93534046,47.704634,-51.292582)"
       id="path1870"
       d="m 115.00057,265.50203 c -0.98988,-4.60833 -2.14411,-9.18822 -4.26023,-13.30721 -1.11008,-2.07367 -2.35081,-4.20529 -4.33136,-4.94962 -0.59366,-0.2384 -1.25979,-0.31345 -1.87066,-0.17709 -0.63553,0.13042 -1.24309,0.4832 -1.78683,0.92877 0,0 0,0 0,0 -1.38307,1.13425 -2.2906,2.82998 -2.974393,4.59188 -0.787957,2.06482 -1.207545,4.27664 -1.236485,6.49477 -0.02197,2.14032 0.309218,4.30918 1.288183,6.17117 0.922305,1.76757 2.546185,3.18505 4.456865,3.77233 2.72635,0.85914 5.76268,0.31024 8.56928,-0.58798 l 0.16006,0.48019 c -2.82994,0.98142 -5.96392,1.59458 -8.92229,0.75215 -2.10538,-0.61326 -3.90604,-2.11343 -4.960974,-4.04435 -1.087345,-2.00206 -1.49696,-4.30151 -1.504262,-6.54696 0,0 0,0 0,-1e-5 -0.01338,-2.3255 0.382797,-4.65716 1.174172,-6.85326 0.66317,-1.87077 1.638804,-3.73281 3.206044,-5.10565 0,0 0,0 1e-5,0 0.63266,-0.55411 1.39746,-1.00308 2.26588,-1.21553 0.8643,-0.20026 1.76963,-0.12334 2.58578,0.18993 2.46292,0.99326 3.98488,3.3071 5.09326,5.46436 2.27925,4.26607 3.56933,8.95381 4.64239,13.58679 z"
       style="fill:none;stroke:#000000;stroke-width:2.36500001;stroke-linecap:butt;stroke-linejoin:miter;stroke-miterlimit:4;stroke-dasharray:none;stroke-opacity:1" />
    <path
       transform="matrix(1.0125944,0,0,0.92901091,46.669227,-49.670162)"
       id="path1880"
       d="m 118.68982,244.60828 c -0.0915,1.05491 -0.27665,2.07139 -0.46062,3.06172 -0.24463,1.32503 -0.5111,2.63892 -0.76627,3.94928 -0.56638,2.91487 -1.11252,5.8187 -1.34957,8.7459 -0.10297,1.2806 -0.15265,2.55679 -0.0376,3.81352 0,0 0,0 0,0 0.0959,0.97841 0.25679,1.9431 0.71147,2.74547 0.34531,0.61497 0.92697,1.12021 1.60146,1.25715 0.95614,0.22368 2.01419,-0.10303 3.00955,-0.5116 l 0.20558,0.46254 c -1.00529,0.48069 -2.15362,0.8667 -3.3368,0.67326 -0.88898,-0.16542 -1.65038,-0.74969 -2.11112,-1.51292 -0.5597,-0.93149 -0.79822,-1.99656 -0.92533,-3.02062 0,0 0,0 0,0 -0.17183,-1.32378 -0.17534,-2.65615 -0.11943,-3.96898 0.12639,-3.00409 0.56209,-5.97657 1.01614,-8.91751 0,0 0,-1e-5 0,-1e-5 0.20434,-1.32649 0.41821,-2.64603 0.60777,-3.96227 0.1426,-0.99619 0.2828,-1.97071 0.3249,-2.92455 z"
       style="fill:none;stroke:#000000;stroke-width:2.36500001;stroke-linecap:butt;stroke-linejoin:miter;stroke-miterlimit:4;stroke-dasharray:none;stroke-opacity:1" />
    <path
       transform="matrix(1.0147078,0,0,0.7810583,46.16726,-9.1322704)"
       id="path1890"
       d="m 128.03298,243.01173 c 2.50805,0.97744 5.10895,1.71134 7.74703,1.89565 2.52692,0.25716 5.1999,0.15554 6.83651,-1.2472 0.0185,0.0106 0.0373,0.021 0.0568,0.0319 0.009,0.003 0.009,0.003 0.009,0.003 0.0215,0.0322 0.0421,0.0633 0.0631,0.0936 0,0 0,0 1e-5,0 0.10425,0.19845 0.20917,0.36861 0.32621,0.51576 -0.1713,0.29948 -0.34835,0.58472 -0.51988,0.86245 0,0 0,0 0,0 -0.67755,1.0982 -1.36709,2.18511 -2.05391,3.27016 0,1e-5 0,1e-5 0,1e-5 -2.1423,3.3846 -4.29398,6.76121 -6.43001,10.14621 -2.06,3.26465 -4.11999,6.52426 -6.09767,9.82999 -0.56859,0.95138 -1.1402,1.88565 -1.62569,2.85071 -0.0606,0.12105 -0.117,0.23529 -0.16214,0.34557 0,0 -1e-5,0 -1e-5,0 -0.13111,0.0114 -0.25832,-0.039 -0.35031,-0.14684 -0.0336,0.0149 -0.065,0.0317 -0.0828,0.0394 0,0 0,0 0,0 -0.0163,0.007 -0.0256,-3.9e-4 -0.0371,-0.009 -0.0613,-0.0484 -0.10313,-0.14547 -0.10715,-0.25554 1.74869,-1.72638 3.56258,-3.4584 5.68404,-4.79335 1e-5,-1e-5 1e-5,-1e-5 1e-5,-1e-5 1.33708,-0.84602 2.87451,-1.47165 4.49847,-1.52263 1.61545,-0.0361 3.16123,0.43472 4.61174,0.98202 2.086,0.78004 4.09826,1.70756 6.13736,2.54125 l -0.18799,0.46996 c -2.06581,-0.80684 -4.08904,-1.70138 -6.1588,-2.43781 -1.43895,-0.50769 -2.91395,-0.94152 -4.37915,-0.87285 -1.45557,0.0552 -2.85968,0.66724 -4.11535,1.47693 0,0 0,0 0,0 -2.01734,1.30742 -3.75509,3.02854 -5.47436,4.77246 -0.10772,0.001 -0.24816,0.026 -0.44059,0.0392 -0.0362,0.002 -0.0772,0.005 -0.11371,-0.006 -0.0396,-0.0121 -0.0685,-0.0317 -0.0981,-0.0478 -0.0772,-0.24698 -0.13411,-0.43162 -0.2023,-0.55685 0,0 0,0 0,0 0.058,-0.14623 0.12153,-0.28198 0.1837,-0.40976 0.49237,-1.01576 1.05993,-1.97914 1.61136,-2.93381 1.9332,-3.34962 3.94624,-6.64891 5.95451,-9.94509 2.08428,-3.42099 4.18303,-6.83171 6.27048,-10.24733 0,0 0,0 0,0 0.67013,-1.09653 1.33992,-2.18988 1.99423,-3.28878 0.16846,-0.28314 0.33343,-0.55793 0.48335,-0.83057 0,0 1e-5,0 1e-5,0 0.18221,0.0262 0.35647,0.0766 0.51115,0.14622 0,0 10e-6,1e-5 10e-6,1e-5 0.0256,0.0179 0.0509,0.0365 0.0747,0.0556 1e-5,1e-5 1e-5,1e-5 1e-5,1e-5 -0.002,0.0169 0.007,0.0381 0.0151,0.0595 -1.79431,2.02515 -4.46298,2.57026 -6.7804,2.52095 -2.84384,-0.1619 -5.61239,-0.88658 -8.23562,-1.87097 z"
       style="fill:none;stroke:#000000;stroke-width:2.36500001;stroke-linecap:butt;stroke-linejoin:miter;stroke-miterlimit:4;stroke-dasharray:none;stroke-opacity:1" />
    <path
       transform="matrix(1.0093987,0,0,0.79780025,46.663199,-13.771862)"
       id="path1900"
       d="m 151.36057,244.30231 c -2.52514,7.20996 -5.43681,14.6783 -4.06946,21.935 0.31026,1.48331 0.83616,2.99805 1.98958,3.65012 0,0 0,0 0,0 0.91239,0.61203 2.24283,0.49149 3.4193,0.0898 0,0 0,0 0,0 3.9264,-1.39159 6.69862,-5.14289 8.89752,-8.90295 0,0 0,0 0,0 3.21843,-5.29819 4.97196,-11.42364 5.0889,-17.5653 0,1e-5 0,1e-5 0,1e-5 0.16364,0.94807 0.442,1.91956 1.13879,2.55698 0.3731,0.4277 0.98238,0.66626 1.54362,0.58416 1.55623,-0.15661 2.52869,-2.01113 2.75668,-3.68481 l 0.50307,0.0559 c -0.16552,1.83636 -1.24886,3.8678 -3.17547,4.21014 -0.76962,0.11203 -1.56234,-0.17823 -2.0882,-0.75239 -0.63036,-0.82309 -0.76077,-1.93299 -0.6783,-2.95869 0.10453,6.25413 -1.36188,12.53398 -4.26482,18.02147 0,0 0,0 0,0 -2.13705,3.88787 -5.01457,7.83253 -9.3204,9.51197 -1e-5,0 -1e-5,0 -1e-5,0 -1.37075,0.54807 -3.03689,0.66379 -4.44762,-0.12996 0,0 -1e-5,0 -1e-5,0 -1.58128,-0.99972 -2.33254,-2.78556 -2.62432,-4.44548 -1.49766,-7.71701 1.31149,-15.5154 3.78811,-22.71217 z"
       style="fill:none;stroke:#000000;stroke-width:2.36500001;stroke-linecap:butt;stroke-linejoin:miter;stroke-miterlimit:4;stroke-dasharray:none;stroke-opacity:1" />
    <path
       transform="matrix(1.0094057,0,0,0.82860692,46.438906,-21.569772)"
       id="path1910"
       d="m 185.27144,244.58405 c -1.14708,-0.15316 -2.25986,-0.26501 -3.27017,-0.0501 -0.65449,0.13107 -1.27833,0.43809 -1.75256,0.89018 0,0 0,0 0,0 -1.3581,1.24093 -2.12967,3.19307 -3.35225,4.98401 0,0 0,0 0,0 -1.58316,2.34878 -2.98989,4.82054 -3.66596,7.49173 -0.41134,1.67345 -0.56043,3.4393 0.0449,4.93944 0.44262,1.15539 1.37935,2.13046 2.51258,2.68605 1.24621,0.61953 2.71926,0.79094 4.16741,0.69004 3.50889,-0.25314 6.87516,-2.1396 9.15219,-4.88239 0,-10e-6 0,-10e-6 0,-10e-6 1.32115,-1.5929 2.26916,-3.50008 2.77806,-5.51857 0,0 0,0 0,0 0.61913,-2.44549 0.59706,-5.04562 0.14768,-7.55903 0,0 0,-1e-5 0,-1e-5 -0.36427,-1.98023 -0.94008,-3.9639 -2.19866,-5.45817 -1.13992,-1.38103 -2.92391,-2.164 -4.74431,-2.38452 l 0.0559,-0.50307 c 1.92935,0.1956 3.84521,1.00856 5.14225,2.50295 1.37545,1.60998 2.03413,3.68662 2.42368,5.71553 0.50765,2.58343 0.57025,5.28671 -0.0372,7.87873 -0.50376,2.14123 -1.47585,4.17759 -2.85989,5.90326 0,0 0,0 0,0 -2.37741,2.96686 -5.93744,5.03629 -9.77088,5.38772 -1.58932,0.14907 -3.25603,-0.0313 -4.75688,-0.72868 -1.39806,-0.65759 -2.55039,-1.82473 -3.14847,-3.27648 -0.732,-1.84817 -0.63316,-3.87754 -0.17833,-5.70731 0,0 0,0 0,0 0.70262,-2.90342 2.13342,-5.54587 3.73517,-7.9777 0,-1e-5 0,-1e-5 1e-5,-1e-5 1.06526,-1.6429 1.86868,-3.6823 3.48761,-5.2954 0,0 0,0 0,0 0.69395,-0.66792 1.56442,-1.12094 2.49405,-1.3226 1.31041,-0.27261 2.60819,-0.18682 3.81182,-0.0245 z"
       style="fill:none;stroke:#000000;stroke-width:2.36500001;stroke-linecap:butt;stroke-linejoin:miter;stroke-miterlimit:4;stroke-dasharray:none;stroke-opacity:1" />
    <path
       transform="matrix(1.0151872,0,0,0.79798423,45.100692,-14.116157)"
       id="path1920"
       d="m 193.64152,241.85387 c 0.78988,1.56653 1.81163,3.05326 3.26594,3.67511 1.08845,0.52126 2.44486,0.48857 3.73598,0.19619 0,0 0,0 0,0 1.38825,-0.32495 2.73404,-0.9549 4.09504,-1.61684 0,0 0,0 0,0 1.35035,-0.47766 2.72164,-1.04963 4.22736,-1.39851 0,0 0,0 0,0 -0.0416,3.20631 -0.46247,6.34645 -1.03198,9.41683 -0.8428,3.64928 -1.93248,7.27706 -3.57471,10.66996 -0.72063,1.49108 -1.56266,2.94819 -2.63467,4.24179 -0.88082,1.06993 -1.96094,2.04045 -3.27718,2.59916 -1.24861,0.51994 -2.66027,0.5567 -3.93293,0.15287 -1.73098,-0.55753 -3.16748,-1.71489 -4.3952,-2.97364 l 0.35791,-0.35791 c 1.23102,1.19931 2.61788,2.28314 4.21644,2.74879 1.14552,0.33857 2.408,0.28033 3.48338,-0.19925 1.16613,-0.51003 2.13249,-1.43102 2.95444,-2.4533 0.99429,-1.24456 1.77163,-2.66127 2.4481,-4.12729 1.53879,-3.3397 2.53142,-6.91653 3.29573,-10.53569 0.73892,-2.87117 1.36852,-5.74926 1.65896,-8.61696 0,0 0,0 0,0 -1.08476,0.51169 -2.10465,1.29407 -3.1919,2.03704 0,0 0,0 0,0 -1.36028,0.70401 -2.78616,1.39636 -4.35147,1.80791 0,0 0,0 0,0 -1.49249,0.40165 -3.16402,0.4401 -4.69945,-0.19826 -1.9351,-0.87569 -3.255,-2.58833 -4.11329,-4.34226 z"
       style="fill:none;stroke:#000000;stroke-width:2.36500001;stroke-linecap:butt;stroke-linejoin:miter;stroke-miterlimit:4;stroke-dasharray:none;stroke-opacity:1" />
    <path
       transform="matrix(0.79572243,0,0,0.56261711,89.364511,39.677621)"
       id="path1940"
       d="m 203.90143,237.83105 c -0.89383,0.93538 -1.7572,1.84355 -2.3497,2.8825 -0.15014,0.27356 -0.28108,0.51452 -0.3229,0.73662 -0.005,0.12704 -0.0382,0.20274 -0.0271,0.17496 0,0 0,0 0,0 -0.045,-0.0218 -0.0147,-0.014 0.0282,0.0176 0.0926,0.0429 0.24378,0.0401 0.42915,0.0336 0.51179,-0.0319 1.04341,-0.22049 1.58068,-0.45204 0.59169,-0.26207 1.15385,-0.58596 1.65142,-0.98681 0,0 0,-1e-5 0,-1e-5 0.40653,-0.34625 0.78814,-0.68885 0.92159,-1.10327 0,0 0,0 0,0 0.0482,-0.14427 0.0724,-0.29172 0.0381,-0.40761 0,0 0,0 0,0 -0.0233,-0.13417 -0.13518,-0.27193 -0.27356,-0.39739 -0.56216,-0.50058 -1.44348,-0.63452 -2.31234,-0.77254 l 0.0559,-0.50307 c 0.8842,0.0563 1.86043,0.15669 2.67983,0.73229 0.23632,0.16647 0.44328,0.40941 0.55681,0.72598 0,0 0,0 0,0 0.0908,0.29195 0.0828,0.59156 0.003,0.85768 0,0 0,0 0,0 -0.1992,0.65124 -0.63741,1.15822 -1.08047,1.54913 -0.5372,0.49559 -1.14508,0.90766 -1.78616,1.24387 -0.56617,0.30369 -1.19691,0.56693 -1.90163,0.67553 0,0 0,0 0,0 -0.25645,0.0445 -0.55904,0.0514 -0.89256,-0.0257 -0.28632,-0.0613 -0.56795,-0.24691 -0.7824,-0.56378 0,0 0,0 0,0 -0.1922,-0.37907 -0.22643,-0.73998 -0.16327,-1.01673 0,0 0,0 0,0 0.0713,-0.44505 0.22616,-0.83118 0.39312,-1.1575 0.62371,-1.26129 1.49377,-2.33881 2.34227,-3.33808 z"
       style="fill:none;stroke:#000000;stroke-width:2.36500001;stroke-linecap:butt;stroke-linejoin:miter;stroke-miterlimit:4;stroke-dasharray:none;stroke-opacity:1" />
    <path
       transform="matrix(1.0019584,0,0,0.95371832,1.4996477,-80.48349)"
       id="path1960"
       d="m 31.441746,272.65143 c 0.457601,4.13376 0.890771,8.24383 1.768485,12.24092 0.2866,1.29403 0.602638,2.55398 1.097428,3.71173 0.348473,0.75898 0.682709,1.46475 1.205266,1.82752 0.294106,0.25148 0.781036,0.32277 1.187306,0.20353 0,0 10e-7,0 10e-7,0 0.739222,-0.18503 1.418294,-0.78579 2.122038,-1.43036 3.006269,-2.5979 5.228078,-5.99077 7.481035,-9.34819 0.903462,2.91238 1.835511,5.80078 2.952971,8.61038 0.565196,1.66912 1.14688,3.31198 2.055181,4.73396 0.266455,0.41151 0.539037,0.7913 0.870308,1.06462 1e-6,0 2e-6,0 3e-6,0 0.223791,0.17388 0.444428,0.31671 0.642784,0.32283 0.163692,0.0293 0.368292,-0.0437 0.55845,-0.15579 0.265008,-0.16 0.494938,-0.4285 0.722974,-0.72876 1e-6,0 2e-6,0 3e-6,0 0.690953,-0.92879 1.140189,-2.06132 1.574212,-3.21885 10e-7,0 10e-7,0 2e-6,0 0.609503,-1.64292 1.094658,-3.34011 1.547359,-5.05234 1.173106,-4.43964 2.09505,-8.95267 3.03664,-13.4651 l 0.590952,0.11819 c -0.863099,4.52643 -1.709248,9.0647 -2.812731,13.55494 -0.425154,1.73104 -0.888817,3.46292 -1.484794,5.1612 -0.411019,1.18362 -0.880271,2.40119 -1.643208,3.48591 -0.249035,0.35999 -0.562275,0.71795 -0.976829,0.99896 -0.333705,0.22776 -0.753891,0.36047 -1.208554,0.33193 -0.490404,-0.0565 -0.904841,-0.27209 -1.218751,-0.5422 -1e-6,0 -3e-6,0 -4e-6,0 -0.459501,-0.38064 -0.8117,-0.83616 -1.105227,-1.2892 -1.013054,-1.54551 -1.665094,-3.26175 -2.255791,-4.93832 -0.826767,-2.79416 -1.416019,-5.64682 -1.921544,-8.49511 -10e-7,0 -10e-7,0 -2e-6,0 -1.833708,3.44072 -3.660934,7.0189 -6.339158,9.94732 -0.710563,0.73123 -1.587991,1.4697 -2.736215,1.84836 -2e-6,0 -3e-6,0 -5e-6,0 -0.871835,0.26285 -1.831807,0.1227 -2.606249,-0.42426 -10e-7,-1e-5 -3e-6,-1e-5 -4e-6,-1e-5 -0.88348,-0.68677 -1.408123,-1.60645 -1.761246,-2.45916 -0.57765,-1.30692 -0.949573,-2.66193 -1.261371,-3.98929 -0.97197,-4.10608 -1.488427,-8.27593 -2.013129,-12.39614 z"
       style="fill:none;stroke:#000000;stroke-width:2.36500001;stroke-linecap:butt;stroke-linejoin:miter;stroke-miterlimit:4;stroke-dasharray:none;stroke-opacity:1" />
    <path
       transform="matrix(0.99398886,0,0,1.0986611,5.1573078,-123.05839)"
       id="path1970"
       d="m 64.584774,281.8757 c 1.883589,-0.93572 3.708772,-1.97721 5.15551,-3.40626 0.806016,-0.82379 1.543909,-1.73758 1.637107,-2.74501 0,0 0,0 0,0 0.09105,-0.65778 -0.193293,-1.37994 -0.692272,-1.8545 -10e-7,0 -2e-6,0 -2e-6,0 -0.598176,-0.58762 -1.472981,-0.9042 -2.372722,-1.06197 -10e-7,0 -10e-7,0 -10e-7,0 -2.387443,-0.40371 -4.956742,0.49411 -6.81056,2.12987 -2.798766,2.44417 -3.8261,6.48072 -3.869293,10.31237 -0.0029,0.84807 0.164443,1.70194 0.58954,2.40483 0,0 10e-7,0 10e-7,10e-6 0.375974,0.63669 0.961094,1.15329 1.622191,1.53777 1.556521,0.90873 3.449151,1.16238 5.316295,1.31317 10e-7,0 2e-6,0 3e-6,0 1.922428,0.1496 3.868125,0.10818 5.820463,0.15034 1e-6,0 2e-6,0 3e-6,0 0.746432,0.0156 1.504042,0.038 2.258431,0.15266 0.473969,0.061 1.019717,0.16202 1.437034,0.53333 l -0.255616,0.27635 c -0.293303,-0.28257 -0.769392,-0.34141 -1.23874,-0.4157 -0.723564,-0.0999 -1.462819,-0.10942 -2.207264,-0.1146 -1.940445,-0.0122 -3.892062,0.0585 -5.850739,-0.063 -1.891065,-0.11225 -3.8628,-0.35789 -5.579106,-1.30505 -0.742452,-0.41131 -1.411217,-0.99037 -1.872709,-1.73122 0,0 -10e-7,0 -10e-7,0 -0.50581,-0.82726 -0.720371,-1.79377 -0.723998,-2.73894 -0.04461,-3.9528 0.991703,-8.19029 3.977236,-10.9528 1.999411,-1.83321 4.802413,-2.85362 7.538214,-2.45735 10e-7,0 2e-6,0 3e-6,0 1.035788,0.14456 2.091952,0.53097 2.922163,1.28286 10e-7,0 2e-6,0 3e-6,0 0.737536,0.68479 1.145064,1.69284 1.04779,2.71983 -0.174315,1.39012 -1.001091,2.53711 -1.904167,3.41841 -1.567746,1.57805 -3.478349,2.72244 -5.399265,3.70007 z"
       style="fill:none;stroke:#000000;stroke-width:2.36500001;stroke-linecap:butt;stroke-linejoin:bevel;stroke-miterlimit:4;stroke-dasharray:none;stroke-opacity:1" />
    <path
       transform="matrix(0.99861369,0,0,1.0313808,2.7746084,-103.40187)"
       id="path1990"
       d="m 75.668351,290.6799 c 1.50179,-2.78359 2.36211,-5.95915 3.548802,-9.07611 1.108867,-2.99211 2.527345,-6.14862 5.16863,-8.27753 2e-6,0 3e-6,-10e-6 4e-6,-10e-6 1.242204,-0.96105 2.708853,-1.43019 4.10049,-1.75054 10e-7,0 10e-7,0 2e-6,-1e-5 1.432607,-0.34632 2.914457,-0.55812 4.410558,-0.55023 1.574234,0.005 3.20825,0.073 4.804766,0.50694 10e-7,0 3e-6,0 4e-6,0 0.817116,0.18334 1.759836,0.58271 2.358183,1.46765 0.39971,0.74792 0.33623,1.56859 0.0209,2.20365 0,0 0,0 0,0 -0.378982,0.81226 -0.949406,1.46295 -1.530964,2.019 -1.375027,1.33732 -2.971252,2.40517 -4.633741,3.28995 -0.603654,0.32483 -1.243379,0.64436 -1.944338,0.86426 -0.179985,0.0649 -0.42308,0.12853 -0.726716,0.12765 -2e-6,0 -4e-6,0 -7e-6,0 -0.08739,0.0143 -0.234829,-0.0242 -0.427606,-0.13276 -0.182571,-0.15152 -0.27369,-0.33352 -0.270635,-0.52776 0,-10e-6 0,-10e-6 0,-2e-5 -0.0048,-0.19321 0.0723,-0.38945 0.231736,-0.56459 0.179025,-0.15284 0.347432,-0.22774 0.481763,-0.24154 0.404693,-0.0676 0.755729,-0.0155 1.034348,0.0527 2e-6,0 3e-6,0 5e-6,0 1.037452,0.21506 1.994978,0.61424 2.907199,1.02357 2.535693,1.12759 4.961196,2.53495 7.138876,4.2679 0.92504,0.73153 1.8364,1.54687 2.53621,2.55892 0,10e-6 0,10e-6 0,10e-6 0.26317,0.37742 0.49553,0.80546 0.62666,1.28791 0.11168,0.4048 0.1185,0.85541 -0.0279,1.28698 0,0 0,0 0,0 -0.17413,0.4628 -0.49356,0.82531 -0.85673,1.08039 -0.51277,0.3658 -1.08583,0.58839 -1.64629,0.74697 -1.9803,0.56874 -4.038298,0.60756 -6.036779,0.59119 -3.445645,-0.0205 -6.931612,-0.10433 -10.334948,-0.80561 l 0.09927,-0.49634 c 3.351943,0.6477 6.797436,0.68109 10.235682,0.65869 1.988309,-0.017 3.984105,-0.0743 5.831395,-0.64077 0.51781,-0.16101 1.01361,-0.35398 1.41139,-0.65512 0.26671,-0.20591 0.49355,-0.45323 0.57931,-0.73078 0.0909,-0.24802 0.0731,-0.54696 -0.002,-0.8339 -0.0963,-0.35884 -0.29599,-0.70247 -0.52887,-1.0375 0,0 0,0 0,0 -0.63242,-0.90202 -1.49817,-1.64578 -2.40402,-2.35199 -2.134602,-1.65413 -4.513416,-2.99006 -7.000755,-4.05906 -0.907666,-0.38671 -1.804715,-0.75287 -2.718813,-0.9233 -0.270503,-0.0407 -0.49192,-0.0895 -0.641379,-0.0434 -0.03241,0.02 -0.0336,0.007 0.02053,-0.0237 0.04984,-0.0659 0.07323,-0.10714 0.06873,-0.14771 0,0 0,0 0,-1e-5 0.0029,-0.10493 -0.04802,-0.19757 -0.156365,-0.29601 -0.100316,-0.0451 -0.134203,-0.0679 -0.115691,-0.0509 0.07828,0.0114 0.207053,-0.0391 0.386248,-0.0884 0.592209,-0.18989 1.167276,-0.49185 1.754099,-0.81265 1.587971,-0.87761 3.089558,-1.90683 4.346508,-3.16782 0.526378,-0.53737 1.009941,-1.08183 1.26785,-1.69308 10e-7,-10e-6 10e-7,-10e-6 2e-6,-10e-6 0.15706,-0.4193 0.233531,-0.88275 0.0285,-1.12379 0,0 -10e-7,0 -10e-7,0 -0.239803,-0.47903 -0.950365,-0.68918 -1.672802,-0.9185 -10e-7,0 -2e-6,0 -4e-6,0 -1.419795,-0.37666 -2.945701,-0.40922 -4.49254,-0.40352 -1.36981,0.009 -2.744906,0.22705 -4.093714,0.56872 -2e-6,0 -3e-6,0 -4e-6,0 -1.323927,0.35107 -2.614006,0.75515 -3.55735,1.54315 -10e-7,0 -2e-6,0 -3e-6,0 -2.301422,1.82791 -3.521601,4.78855 -4.620498,7.72719 -1.106336,3.04226 -1.948695,6.28408 -3.512119,9.31376 z"
       style="fill:none;stroke:#000000;stroke-width:2.36500001;stroke-linecap:butt;stroke-linejoin:bevel;stroke-miterlimit:4;stroke-dasharray:none;stroke-opacity:1" />
    <path
       transform="matrix(0.9300638,0,0,0.81742975,81.506865,-70.97325)"
       id="path2020"
       d="m 50.403758,307.91998 c -0.02298,4.65883 2.940546,9.89676 7.479006,10.28359 1.868616,0.2108 3.861637,-0.49718 5.16665,-1.87014 2.055603,-1.88448 2.839616,-4.79321 3.043151,-7.58869 0.281522,5.25328 -0.106031,10.4695 0.769427,15.55931 0,0 0,0 10e-7,0 0.346309,2.35876 0.963059,4.70631 2.254837,6.66066 1.25676,1.91805 3.263239,3.32664 5.49324,3.95713 l -0.13318,0.48833 c -2.355503,-0.61832 -4.499636,-2.06074 -5.891872,-4.08866 -1.397895,-2.05035 -2.100622,-4.48488 -2.490633,-6.89941 0,0 0,0 0,0 -0.723414,-5.20764 -0.08262,-10.49613 -0.0017,-15.66744 0,0 0,0 -10e-7,10e-6 0.19549,2.94725 -0.267984,6.12025 -2.144557,8.42215 -1.56267,1.68518 -3.894794,2.57518 -6.199498,2.37085 -5.43701,-0.60348 -9.00158,-6.26288 -8.978381,-11.63579 z"
       style="fill:none;stroke:#000000;stroke-width:2.36500001;stroke-linecap:butt;stroke-linejoin:miter;stroke-miterlimit:4;stroke-dasharray:none;stroke-opacity:1" />
    <path
       transform="translate(79.375006,-130.40875)"
       id="path2030"
       d="m 42.358292,318.84593 c 2.152568,-2.10747 4.093293,-4.53654 4.800707,-7.46561 l 0.498,0.0906 c -0.379291,3.13598 -2.08463,6.02728 -4.094897,8.4793 z"
       style="fill:none;stroke:#000000;stroke-width:2.36500001;stroke-linecap:butt;stroke-linejoin:miter;stroke-miterlimit:4;stroke-dasharray:none;stroke-opacity:1" />
    <path
       transform="matrix(1.0296599,0,0,1.0147028,47.924754,-73.584381)"
       id="path2060"
       d="m 21.061752,257.91917 c -1.192719,0.59533 -2.555421,1.10052 -4.016215,1.0833 -0.848108,-0.0106 -1.714162,-0.2981 -2.384207,-0.89359 -10e-7,0 -10e-7,0 -10e-7,0 -0.859479,-0.82921 -1.222211,-1.93944 -1.346974,-2.97471 0,0 0,0 -1e-6,0 -0.156191,-1.12116 -0.560358,-2.34236 -0.413983,-3.65465 0.233898,-1.79061 0.845173,-3.44475 1.178882,-5.13061 l 0.459861,0.0776 c -0.242016,1.75175 -0.757241,3.44464 -0.871084,5.13065 -0.09143,1.08104 0.376136,2.17661 0.614285,3.41658 0,0 0,0 0,0 0.199048,0.90902 0.514541,1.79699 1.139643,2.26819 10e-7,0 10e-7,0 10e-7,0 0.418047,0.35651 1.027453,0.49433 1.62277,0.48113 1.121174,-0.022 2.228289,-0.54836 3.325589,-1.1407 z"
       style="fill:none;stroke:#000000;stroke-width:2.26482511;stroke-linecap:butt;stroke-linejoin:miter;stroke-miterlimit:4;stroke-dasharray:none;stroke-opacity:1" />
  </g>
</svg>
