<?xml version="1.0" encoding="UTF-8" standalone="no"?>
<!-- Created with Inkscape (http://www.inkscape.org/) -->

<svg
   xmlns:dc="http://purl.org/dc/elements/1.1/"
   xmlns:cc="http://creativecommons.org/ns#"
   xmlns:rdf="http://www.w3.org/1999/02/22-rdf-syntax-ns#"
   xmlns:svg="http://www.w3.org/2000/svg"
   xmlns="http://www.w3.org/2000/svg"
   xmlns:sodipodi="http://sodipodi.sourceforge.net/DTD/sodipodi-0.dtd"
   xmlns:inkscape="http://www.inkscape.org/namespaces/inkscape"
   width="500"
   height="80"
   viewBox="0 0 132.29167 21.166666"
   version="1.1"
   id="svg7827"
   inkscape:version="0.92.4 (5da689c313, 2019-01-14)"
   sodipodi:docname="web razvoj txt.svg">
  <defs
     id="defs7821">
    <inkscape:path-effect
       effect="skeletal"
       id="path-effect7807"
       is_visible="true"
       pattern="m -46.223729,147.53486 9.892829,1.49543 9.892832,1.49542 -9.787644,1.54417 -9.787645,1.54416 -0.105188,-3.03959 z"
       copytype="single_stretched"
       prop_scale="0.18646381"
       scale_y_rel="false"
       spacing="0"
       normal_offset="0"
       tang_offset="0"
       prop_units="false"
       vertical_pattern="false"
       fuse_tolerance="0" />
    <inkscape:path-effect
       effect="skeletal"
       id="path-effect7797"
       is_visible="true"
       pattern="m -46.223729,147.53486 9.892829,1.49543 9.892832,1.49542 -9.787644,1.54417 -9.787645,1.54416 -0.105188,-3.03959 z"
       copytype="single_stretched"
       prop_scale="0.13124055"
       scale_y_rel="false"
       spacing="0"
       normal_offset="0"
       tang_offset="0"
       prop_units="false"
       vertical_pattern="false"
       fuse_tolerance="0" />
    <inkscape:path-effect
       effect="skeletal"
       id="path-effect7787"
       is_visible="true"
       pattern="m -46.223729,147.53486 9.892829,1.49543 9.892832,1.49542 -9.787644,1.54417 -9.787645,1.54416 -0.105188,-3.03959 z"
       copytype="single_stretched"
       prop_scale="0.26458331"
       scale_y_rel="false"
       spacing="0"
       normal_offset="0"
       tang_offset="0"
       prop_units="false"
       vertical_pattern="false"
       fuse_tolerance="0" />
    <inkscape:path-effect
       effect="skeletal"
       id="path-effect7777"
       is_visible="true"
       pattern="m -46.223729,147.53486 9.892829,1.49543 9.892832,1.49542 -9.787644,1.54417 -9.787645,1.54416 -0.105188,-3.03959 z"
       copytype="single_stretched"
       prop_scale="0.17548603"
       scale_y_rel="false"
       spacing="0"
       normal_offset="0"
       tang_offset="0"
       prop_units="false"
       vertical_pattern="false"
       fuse_tolerance="0" />
    <inkscape:path-effect
       effect="skeletal"
       id="path-effect7767"
       is_visible="true"
       pattern="m -46.223729,147.53486 9.892829,1.49543 9.892832,1.49542 -9.787644,1.54417 -9.787645,1.54416 -0.105188,-3.03959 z"
       copytype="single_stretched"
       prop_scale="0.34095979"
       scale_y_rel="false"
       spacing="0"
       normal_offset="0"
       tang_offset="0"
       prop_units="false"
       vertical_pattern="false"
       fuse_tolerance="0" />
    <inkscape:path-effect
       effect="skeletal"
       id="path-effect7757"
       is_visible="true"
       pattern="m -46.223729,147.53486 9.892829,1.49543 9.892832,1.49542 -9.787644,1.54417 -9.787645,1.54416 -0.105188,-3.03959 z"
       copytype="single_stretched"
       prop_scale="0.15949072"
       scale_y_rel="false"
       spacing="0"
       normal_offset="0"
       tang_offset="0"
       prop_units="false"
       vertical_pattern="false"
       fuse_tolerance="0" />
    <inkscape:path-effect
       effect="skeletal"
       id="path-effect7747"
       is_visible="true"
       pattern="m -46.223729,147.53486 9.892829,1.49543 9.892832,1.49542 -9.787644,1.54417 -9.787645,1.54416 -0.105188,-3.03959 z"
       copytype="single_stretched"
       prop_scale="0.38711592"
       scale_y_rel="false"
       spacing="0"
       normal_offset="0"
       tang_offset="0"
       prop_units="false"
       vertical_pattern="false"
       fuse_tolerance="0" />
    <inkscape:path-effect
       effect="skeletal"
       id="path-effect7727"
       is_visible="true"
       pattern="m -46.223729,147.53486 9.892829,1.49543 9.892832,1.49542 -9.787644,1.54417 -9.787645,1.54416 -0.105188,-3.03959 z"
       copytype="single_stretched"
       prop_scale="0.10436133"
       scale_y_rel="false"
       spacing="0"
       normal_offset="0"
       tang_offset="0"
       prop_units="false"
       vertical_pattern="false"
       fuse_tolerance="0" />
    <inkscape:path-effect
       effect="skeletal"
       id="path-effect7713"
       is_visible="true"
       pattern="m -46.223729,147.53486 9.892829,1.49543 9.892832,1.49542 -9.787644,1.54417 -9.787645,1.54416 -0.105188,-3.03959 z"
       copytype="single_stretched"
       prop_scale="0.26458331"
       scale_y_rel="false"
       spacing="0"
       normal_offset="0"
       tang_offset="0"
       prop_units="false"
       vertical_pattern="false"
       fuse_tolerance="0" />
    <inkscape:path-effect
       effect="skeletal"
       id="path-effect7693"
       is_visible="true"
       pattern="m -46.223729,147.53486 9.892829,1.49543 9.892832,1.49542 -9.787644,1.54417 -9.787645,1.54416 -0.105188,-3.03959 z"
       copytype="single_stretched"
       prop_scale="0.26458331"
       scale_y_rel="false"
       spacing="0"
       normal_offset="0"
       tang_offset="0"
       prop_units="false"
       vertical_pattern="false"
       fuse_tolerance="0" />
    <inkscape:path-effect
       effect="skeletal"
       id="path-effect7683"
       is_visible="true"
       pattern="m -46.223729,147.53486 9.892829,1.49543 9.892832,1.49542 -9.787644,1.54417 -9.787645,1.54416 -0.105188,-3.03959 z"
       copytype="single_stretched"
       prop_scale="0.26259234"
       scale_y_rel="false"
       spacing="0"
       normal_offset="0"
       tang_offset="0"
       prop_units="false"
       vertical_pattern="false"
       fuse_tolerance="0" />
    <inkscape:path-effect
       effect="skeletal"
       id="path-effect7673"
       is_visible="true"
       pattern="m -46.223729,147.53486 9.892829,1.49543 9.892832,1.49542 -9.787644,1.54417 -9.787645,1.54416 -0.105188,-3.03959 z"
       copytype="single_stretched"
       prop_scale="0.26458331"
       scale_y_rel="false"
       spacing="0"
       normal_offset="0"
       tang_offset="0"
       prop_units="false"
       vertical_pattern="false"
       fuse_tolerance="0" />
    <inkscape:path-effect
       effect="skeletal"
       id="path-effect7663"
       is_visible="true"
       pattern="m -46.223729,147.53486 9.892829,1.49543 9.892832,1.49542 -9.787644,1.54417 -9.787645,1.54416 -0.105188,-3.03959 z"
       copytype="single_stretched"
       prop_scale="0.07728124"
       scale_y_rel="false"
       spacing="0"
       normal_offset="0"
       tang_offset="0"
       prop_units="false"
       vertical_pattern="false"
       fuse_tolerance="0" />
    <inkscape:path-effect
       effect="skeletal"
       id="path-effect7653"
       is_visible="true"
       pattern="m -46.223729,147.53486 9.892829,1.49543 9.892832,1.49542 -9.787644,1.54417 -9.787645,1.54416 -0.105188,-3.03959 z"
       copytype="single_stretched"
       prop_scale="0.26458331"
       scale_y_rel="false"
       spacing="0"
       normal_offset="0"
       tang_offset="0"
       prop_units="false"
       vertical_pattern="false"
       fuse_tolerance="0" />
    <inkscape:path-effect
       effect="skeletal"
       id="path-effect7609"
       is_visible="true"
       pattern="m -46.223729,147.53486 9.892829,1.49543 9.892832,1.49542 -9.787644,1.54417 -9.787645,1.54416 -0.105188,-3.03959 z"
       copytype="single_stretched"
       prop_scale="0.22231779"
       scale_y_rel="false"
       spacing="0"
       normal_offset="0"
       tang_offset="0"
       prop_units="false"
       vertical_pattern="false"
       fuse_tolerance="0" />
    <inkscape:path-effect
       effect="skeletal"
       id="path-effect7575"
       is_visible="true"
       pattern="m -46.223729,147.53486 9.892829,1.49543 9.892832,1.49542 -9.787644,1.54417 -9.787645,1.54416 -0.105188,-3.03959 z"
       copytype="single_stretched"
       prop_scale="0.26458331"
       scale_y_rel="false"
       spacing="0"
       normal_offset="0"
       tang_offset="0"
       prop_units="false"
       vertical_pattern="false"
       fuse_tolerance="0" />
    <inkscape:path-effect
       effect="skeletal"
       id="path-effect7565"
       is_visible="true"
       pattern="m -46.223729,147.53486 9.892829,1.49543 9.892832,1.49542 -9.787644,1.54417 -9.787645,1.54416 -0.105188,-3.03959 z"
       copytype="single_stretched"
       prop_scale="0.26458331"
       scale_y_rel="false"
       spacing="0"
       normal_offset="0"
       tang_offset="0"
       prop_units="false"
       vertical_pattern="false"
       fuse_tolerance="0" />
    <inkscape:path-effect
       effect="skeletal"
       id="path-effect7529"
       is_visible="true"
       pattern="m -46.223729,147.53486 9.892829,1.49543 9.892832,1.49542 -9.787644,1.54417 -9.787645,1.54416 -0.105188,-3.03959 z"
       copytype="single_stretched"
       prop_scale="-0.01743663"
       scale_y_rel="false"
       spacing="0"
       normal_offset="0"
       tang_offset="0"
       prop_units="false"
       vertical_pattern="false"
       fuse_tolerance="0" />
    <inkscape:path-effect
       effect="skeletal"
       id="path-effect7519"
       is_visible="true"
       pattern="m -46.223729,147.53486 9.892829,1.49543 9.892832,1.49542 -9.787644,1.54417 -9.787645,1.54416 -0.105188,-3.03959 z"
       copytype="single_stretched"
       prop_scale="0.26458331"
       scale_y_rel="false"
       spacing="0"
       normal_offset="0"
       tang_offset="0"
       prop_units="false"
       vertical_pattern="false"
       fuse_tolerance="0" />
    <inkscape:path-effect
       effect="skeletal"
       id="path-effect7499"
       is_visible="true"
       pattern="m -46.223729,147.53486 9.892829,1.49543 9.892832,1.49542 -9.787644,1.54417 -9.787645,1.54416 -0.105188,-3.03959 z"
       copytype="single_stretched"
       prop_scale="0.26458331"
       scale_y_rel="false"
       spacing="0"
       normal_offset="0"
       tang_offset="0"
       prop_units="false"
       vertical_pattern="false"
       fuse_tolerance="0" />
    <inkscape:path-effect
       effect="skeletal"
       id="path-effect7489"
       is_visible="true"
       pattern="m -46.223729,147.53486 9.892829,1.49543 9.892832,1.49542 -9.787644,1.54417 -9.787645,1.54416 -0.105188,-3.03959 z"
       copytype="single_stretched"
       prop_scale="0.26458331"
       scale_y_rel="false"
       spacing="0"
       normal_offset="0"
       tang_offset="0"
       prop_units="false"
       vertical_pattern="false"
       fuse_tolerance="0" />
  </defs>
  <sodipodi:namedview
     id="base"
     pagecolor="#ffffff"
     bordercolor="#666666"
     borderopacity="1.0"
     inkscape:pageopacity="0.0"
     inkscape:pageshadow="2"
     inkscape:zoom="0.99272731"
     inkscape:cx="298.52693"
     inkscape:cy="67.354002"
     inkscape:document-units="mm"
     inkscape:current-layer="layer1"
     showgrid="false"
     units="px"
     inkscape:window-width="1366"
     inkscape:window-height="706"
     inkscape:window-x="-8"
     inkscape:window-y="-8"
     inkscape:window-maximized="1"
     objecttolerance="1"
     guidetolerance="1" />
  <metadata
     id="metadata7824">
    <rdf:RDF>
      <cc:Work
         rdf:about="">
        <dc:format>image/svg+xml</dc:format>
        <dc:type
           rdf:resource="http://purl.org/dc/dcmitype/StillImage" />
        <dc:title></dc:title>
      </cc:Work>
    </rdf:RDF>
  </metadata>
  <g
     inkscape:label="Layer 1"
     inkscape:groupmode="layer"
     id="layer1"
     transform="translate(0,-275.83336)">
    <path class="path"
       style="fill:none;stroke:#FFFFFF;stroke-width:1.89999998;stroke-linecap:butt;stroke-linejoin:miter;stroke-miterlimit:4"
       d="m -63.113195,166.9357 c 1.022928,5.56472 2.111627,11.10987 3.569367,16.56454 0.0249,0.0932 0.0499,0.18628 0.07501,0.27938 1.448845,5.36183 3.174449,10.69314 5.990031,15.49448 -3.040939,-4.66204 -5.047008,-9.95528 -6.752382,-15.26968 -0.01121,-0.0349 -0.02239,-0.0697 -0.03357,-0.10462 -1.715331,-5.354 -3.071496,-10.81808 -4.349517,-16.28252 0.250139,-0.11374 0.500298,-0.22741 0.750476,-0.34101 0.250177,-0.1136 0.500373,-0.22712 0.750585,-0.34057 z"
       id="path7481"
       inkscape:connector-curvature="0"
       inkscape:path-effect="#path-effect7489"
       inkscape:original-d="m -63.900578,167.09942 c 2.154258,10.3603 5.165777,23.69614 10.410811,32.18144"
       transform="matrix(0.47548265,0,0,0.32640507,34.493148,226.37963)" />
    <path class="path"
       style="fill:none;stroke:#FFFFFF;stroke-width:2;stroke-linecap:butt;stroke-linejoin:miter;stroke-miterlimit:4"
       d="m -37.804701,171.99755 c -1.188479,2.26654 -2.65659,4.31831 -4.101054,6.33854 -1.63503,2.29056 -3.305151,4.54293 -4.907514,6.83787 -0.109351,0.15661 -0.218386,0.31342 -0.327074,0.47046 0,0 0,0 0,0 -1.631865,2.35924 -3.210208,4.75327 -4.485619,7.31352 0,0 0,0 -10e-7,0 -0.984583,1.98657 -1.887743,4.09489 -1.839941,6.31557 -0.161019,-2.21544 0.635695,-4.41578 1.531918,-6.45956 1.155069,-2.64659 2.624565,-5.14822 4.141939,-7.59691 10e-7,0 10e-7,0 10e-7,0 0.07144,-0.11535 0.143056,-0.23059 0.214827,-0.34571 1.518857,-2.43636 3.10805,-4.8233 4.646629,-7.22899 1.277125,-1.99966 2.551086,-3.9813 3.536738,-6.0624 0.263596,0.0726 0.527809,0.1438 0.79266,0.21342 0.264851,0.0696 0.53034,0.1377 0.796491,0.20419 z"
       id="path7491"
       inkscape:connector-curvature="0"
       inkscape:path-effect="#path-effect7499"
       inkscape:original-d="m -38.526188,171.64225 c -3.573489,7.25657 -15.292506,20.29542 -14.952599,27.63185"
       transform="matrix(0.47548265,0,0,0.32640507,34.493148,226.37963)" />
    <path class="path"
       style="fill:none;stroke:#FFFFFF;stroke-width:2;stroke-linecap:butt;stroke-linejoin:miter;stroke-miterlimit:4"
       d="m -50.647297,170.97634 c 4.333316,2.50202 6.925995,6.88512 9.062975,11.11252 0.04099,0.0804 0.08181,0.16083 0.122452,0.24134 2.180143,4.31868 3.872948,8.82863 6.307808,12.97312 -2.635108,-3.95908 -4.588206,-8.355 -6.943412,-12.45704 -0.06969,-0.12138 -0.139737,-0.24251 -0.210161,-0.36336 -2.329445,-3.96659 -4.98735,-7.97756 -8.841671,-9.95089 0.08893,-0.25608 0.17525,-0.51375 0.258932,-0.77302 0.08368,-0.25928 0.164724,-0.52016 0.243077,-0.78267 z"
       id="path7511"
       inkscape:connector-curvature="0"
       inkscape:path-effect="#path-effect7519"
       inkscape:original-d="m -51.025178,171.68626 c 7.600526,4.04567 11.314369,16.3506 15.860178,23.62389"
       transform="matrix(0.47548265,0,0,0.32640507,34.493148,226.37963)" />
    <path class="path"
       style="fill:none;stroke:#FFFFFF;stroke-width:1.79999995;stroke-linecap:butt;stroke-linejoin:miter;stroke-miterlimit:4"
       d="m -26.616008,168.1277 c 0.632613,0.21252 1.419439,0.0809 1.777046,0.57624 0.08478,0.0967 0.02945,0.26849 0.0066,0.43088 -0.04561,0.25404 -0.12126,0.50341 -0.201925,0.75191 0,0 0,0 0,0 -0.138251,0.42551 -0.306148,0.84236 -0.463571,1.26432 -1.309582,3.51005 -2.933936,6.89463 -4.639098,10.23574 -0.350041,0.68587 -0.703487,1.36992 -1.058315,2.05283 -1.155,2.22292 -2.351999,4.42448 -3.619485,6.5853 0,0 0,0 0,0 -1.008285,1.7189 -2.044533,3.42605 -3.237614,5.0223 1.198457,-1.59222 2.240833,-3.29639 3.254986,-5.01207 0,0 0,0 1e-6,0 1.274985,-2.15691 2.479707,-4.35496 3.642456,-6.57448 0,0 0,0 0,0 0.33118,-0.63215 0.66119,-1.26531 0.988424,-1.90007 1.744866,-3.38459 3.410793,-6.81437 4.754053,-10.37752 0.158328,-0.41995 0.32805,-0.83742 0.469187,-1.2666 0,0 1e-6,0 1e-6,0 0.08209,-0.24939 0.159661,-0.50272 0.207728,-0.76407 0.03443,-0.15244 0.08439,-0.34956 -0.02356,-0.50868 -0.348866,-0.44535 -0.960082,-0.4431 -1.498202,-0.53905 -0.05959,0.008 -0.119132,0.0147 -0.17885,0.0188 -0.05972,0.004 -0.119602,0.006 -0.179873,0.004 z"
       id="path7521"
       inkscape:connector-curvature="0"
       inkscape:path-effect="#path-effect7529"
       inkscape:original-d="m -26.599335,168.07739 c 0.600046,0.19886 1.419624,0.0918 1.800137,0.59658 0.233629,0.30994 -0.520896,2.1326 -0.656064,2.49305 -2.229097,5.94426 -8.824112,18.85096 -12.596417,23.88071"
       transform="matrix(0.47548265,0,0,0.32640507,34.493148,226.37963)" />
    <path class="path"
       style="fill:none;stroke:#FFFFFF;stroke-width:1.89999998;stroke-linecap:butt;stroke-linejoin:miter;stroke-miterlimit:4"
       d="m -1.9375673,167.37821 c -4.180678,0.0506 -8.1240677,2.69439 -11.1314947,5.89583 0,0 0,0 0,0 -2.630205,2.86481 -4.734337,6.4792 -4.582159,10.30457 0,0 0,0 0,0 0.0064,0.2086 0.01957,0.41668 0.03934,0.62404 0.267408,2.80468 1.736515,5.47804 3.757867,7.54479 2.170845,2.21374 4.9350352,3.86178 7.9297654,4.76111 4e-7,0 8e-7,0 1.3e-6,0 1.3358259,0.40062 2.7243065,0.64964 4.1207119,0.63969 1.19503127,-0.009 2.40789568,-0.2091 3.4781087,-0.75127 -1.05287871,0.57514 -2.26935934,0.81766 -3.4756279,0.86301 -1.4092205,0.0534 -2.8238303,-0.15365 -4.18933,-0.51829 -4e-7,0 -8e-7,0 -1.3e-6,0 -3.0603668,-0.81623 -5.9330461,-2.40368 -8.2397841,-4.61377 -1e-6,0 -1e-6,0 -1e-6,0 -2.095533,-2.00315 -3.685139,-4.64523 -4.141116,-7.55094 -0.0496,-0.31608 -0.08579,-0.63527 -0.107752,-0.95711 -0.247684,-4.13575 1.816104,-8.08411 4.518393,-11.14825 0,0 0,0 0,0 2.878727,-3.33721 6.818229,-6.17181 11.3716864,-6.65975 0.120716,0.25664 0.2354651,0.51551 0.3440855,0.77657 0.1086169,0.26107 0.2111054,0.52433 0.3073038,0.78977 z"
       id="path7557"
       inkscape:connector-curvature="0"
       inkscape:path-effect="#path-effect7565"
       inkscape:original-d="m -1.9681903,166.57457 c -4.3306249,0.16502 -8.7334117,3.17232 -11.5467167,6.29821 -13.794871,15.32763 7.3104374,27.68052 15.1954806,23.53561"
       transform="matrix(0.47548265,0,0,0.32640507,34.493148,226.72507)" />
    <path class="path"
       style="fill:none;stroke:#FFFFFF;stroke-width:2;stroke-linecap:butt;stroke-linejoin:miter;stroke-miterlimit:4"
       d="m 0.3421601,182.17768 c -1.49464,0.33004 -2.9365958,0.21267 -4.2830913,0.12669 -1.7092481,-0.0968 -3.398682,-0.24825 -5.0850336,-0.34056 -0.1181482,-0.006 -0.2362814,-0.0126 -0.3544051,-0.0185 -1.7130471,-0.0828 -3.4209021,-0.1366 -5.1013291,0.11922 0,0 -10e-7,0 -10e-7,0 -1.192474,0.19466 -2.493086,0.5041 -3.158444,1.52067 0.572954,-1.07163 1.895832,-1.5577 3.0962,-1.83731 0,0 0,0 0,0 1.689716,-0.41009 3.443997,-0.51486 5.1683609,-0.57975 2e-7,0 3e-7,0 5e-7,0 0.086905,-0.003 0.1738006,-0.007 0.2606848,-0.01 1.7397029,-0.0604 3.4748704,-0.0572 5.1912838,-0.11143 1.310033,-0.0486 2.5838448,-0.0445 3.67823244,-0.37741 0.0904052,0.25312 0.18446627,0.50537 0.28233871,0.7567 0.09787125,0.25133 0.19955374,0.50174 0.30520295,0.7512 z"
       id="path7567"
       inkscape:connector-curvature="0"
       inkscape:path-effect="#path-effect7575"
       inkscape:original-d="m 0.13121269,181.40161 c -3.74491929,1.01793 -15.68536469,-1.34216 -17.78243369,2.177"
       transform="matrix(0.47548265,0,0,0.32640507,34.493148,226.72507)" />
    <path class="path"
       style="fill:none;stroke:#FFFFFF;stroke-width:1.5;stroke-linecap:butt;stroke-linejoin:miter;stroke-miterlimit:4"
       d="m -24.885054,206.60901 c 3.867215,-0.61936 7.736516,-0.72083 11.563081,-1.064 0.03022,-0.003 0.06045,-0.005 0.09067,-0.008 3.8477782,-0.35292 7.6856625,-1.09906 11.2585882,-2.62614 -3.4410356,1.7143 -7.228564,2.69933 -11.0540552,3.28214 -0.07148,0.0109 -0.142978,0.0216 -0.214485,0.0323 -3.746791,0.55812 -7.519094,0.88243 -11.15197,1.66685 -0.08075,-0.21411 -0.162099,-0.42807 -0.244066,-0.64188 -0.08197,-0.21381 -0.164547,-0.42747 -0.247761,-0.64098 z"
       id="path7601"
       inkscape:connector-curvature="0"
       inkscape:path-effect="#path-effect7609"
       inkscape:original-d="m -24.759083,207.27292 c 8.141834,-1.54484 14.8688883,-0.69612 22.7908926,-4.35244"
       sodipodi:nodetypes="cc"
       transform="matrix(0.4653103,0.01667269,-0.02428754,0.31942204,39.230817,215.62735)" />
    <path class="path"
       style="fill:none;stroke:#FFFFFF;stroke-width:1.70000005;stroke-linecap:butt;stroke-linejoin:miter;stroke-miterlimit:4"
       d="m 4.1128281,165.90616 c 3.6735237,-0.36936 7.5549089,0.059 10.8573189,1.86866 2.345587,1.27293 4.367898,3.41282 4.966286,6.10026 0,0 -1e-6,0 -1e-6,0 0.512,2.54741 -0.554216,5.16082 -2.410542,6.85116 -2.552395,2.14266 -5.921245,2.99892 -9.2399651,3.32582 -0.4426031,0.0436 -0.8843146,0.0778 -1.3230788,0.10434 2.0240508,-0.24017 4.0073369,0.10278 5.8758599,0.6387 2.009963,0.68352 3.970079,1.61541 5.633716,2.95973 10e-7,0 10e-7,0 10e-7,0 0.68616,0.55287 1.326855,1.19436 1.793576,1.96467 0.394347,0.6475 0.636571,1.41291 0.574443,2.18725 -0.07919,0.85456 -0.517596,1.62059 -1.081273,2.22318 -0.851391,0.91429 -1.934583,1.55531 -3.034766,2.08828 -10e-7,0 -10e-7,0 -2e-6,0 -0.80573,0.38823 -1.703492,0.46742 -2.564249,0.52222 -1.110568,0.0734 -2.222298,0.0505 -3.329133,-0.002 -10e-7,0 -10e-7,0 -2e-6,0 -1.0332677,-0.049 -2.0639116,-0.13 -3.0931631,-0.22052 -0.6121931,-0.0538 -1.2209842,-0.13821 -1.8332851,-0.14508 0.6123009,-0.007 1.2246653,0.0632 1.8365208,0.10284 1.030806,0.0668 2.062257,0.12396 3.0940384,0.14913 1.105731,0.0269 2.212723,0.0243 3.310329,-0.0739 10e-7,0 10e-7,0 2e-6,0 0.856388,-0.0783 1.728284,-0.17186 2.467311,-0.5559 1.07407,-0.55456 2.115769,-1.20093 2.899394,-2.08914 0.510019,-0.58079 0.899686,-1.28716 0.94077,-2.02825 0.0459,-0.66983 -0.193884,-1.34513 -0.559968,-1.92765 -0.442449,-0.70057 -1.060805,-1.28575 -1.729633,-1.80451 0,-1e-5 -1e-6,-1e-5 -1e-6,-1e-5 -1.62883,-1.25986 -3.548923,-2.11282 -5.525539,-2.73953 -1.862605,-0.6867 -3.7934838,-1.23078 -5.6918951,-1.24814 0.3048788,-0.0426 0.6105101,-0.089 0.9161029,-0.13995 3.3324552,-0.55551 6.6603262,-1.64504 8.9577992,-4.04677 1.569321,-1.51387 2.458471,-3.80619 1.949416,-5.83583 -0.49979,-2.23521 -2.356333,-4.03431 -4.449513,-5.15459 0,0 -1e-6,0 -1e-6,0 -2.789603,-1.47684 -6.0941122,-1.81907 -9.3136316,-1.53939 -0.1412202,-0.25913 -0.2864003,-0.51674 -0.4353424,-0.77264 -0.1489374,-0.2559 -0.3016366,-0.51009 -0.4578999,-0.76239 z m 4.6936712,1.37674 -1.3133189,14.07966 -1.3133166,14.07966 0.5010253,-13.98194 0.5010281,-13.98195 0.8122912,-0.0977 z"
       id="path7645"
       inkscape:connector-curvature="0"
       inkscape:path-effect="#path-effect7653"
       inkscape:original-d="m 4.1988059,166.70578 c 17.2456581,-1.85432 22.2462751,15.50221 2.7554666,17.45129 6.4922125,-0.36392 20.5616245,6.51441 9.7097395,11.94036 -2.35319,1.17659 -9.6083755,0.26242 -10.7594409,0.26242 m 2.099403,-29.12921 -1.8369776,28.21072"
       transform="matrix(0.47548265,0,0,0.32640507,34.493148,226.55236)" />
    <path class="path"
       style="fill:none;stroke:#FFFFFF;stroke-width:1.29999995;stroke-linecap:butt;stroke-linejoin:miter;stroke-miterlimit:4"
       d="m 1.7659382,236.04631 c 1.0326005,0.11796 2.0832666,-0.47207 2.8307535,-1.29366 0.00802,-0.009 0.015996,-0.0176 0.023941,-0.0265 0.7364765,-0.82522 1.2685768,-1.83562 1.8970227,-2.7692 -0.5624001,0.97486 -1.0187102,2.01256 -1.7172478,2.91844 -6.41e-5,9e-5 -1.283e-4,1.7e-4 -1.924e-4,2.5e-4 -0.7020676,0.91334 -1.7669131,1.63274 -2.9848216,1.6425 -0.010319,-0.0783 -0.019608,-0.15673 -0.027855,-0.23537 -0.00825,-0.0786 -0.015451,-0.15746 -0.0216,-0.23645 z"
       id="path7655"
       inkscape:connector-curvature="0"
       inkscape:path-effect="#path-effect7663"
       inkscape:original-d="m 1.7513746,236.28076 c 2.570757,0.15969 3.7330782,-2.66359 4.7694702,-4.32182"
       sodipodi:nodetypes="cc"
       transform="matrix(0.47548265,0,0,0.32640507,34.493148,213.77086)" />
    <path class="path"
       style="fill:none;stroke:#FFFFFF;stroke-width:2.0999999;stroke-linecap:butt;stroke-linejoin:miter;stroke-miterlimit:4"
       d="m 44.499206,166.68439 c 1.679673,-0.47669 3.621395,-0.86521 5.516241,-0.25343 1.968768,0.67873 3.900053,1.70621 5.396643,3.24067 2.172699,2.17834 3.770793,5.39256 2.954771,8.47452 -10e-7,0 0,0 0,0 -0.397305,1.38243 -1.359159,2.52728 -2.560004,3.23791 -0.03526,0.0209 -0.07073,0.0414 -0.106396,0.0615 -1.725355,0.89175 -3.738713,1.04619 -5.66606,0.95204 1.691036,2.52096 3.104694,5.20472 4.790586,7.74381 0,1e-5 0,1e-5 0,1e-5 0.871559,1.35083 1.800609,2.66777 2.897366,3.83944 0.892575,0.95138 1.901521,1.84477 3.133943,2.27807 -1.246426,-0.39129 -2.300942,-1.25683 -3.229423,-2.1857 -1.144119,-1.14282 -2.127409,-2.43917 -3.04826,-3.76709 0,0 0,-1e-5 -10e-7,-1e-5 -1.74271,-2.57598 -3.171058,-5.37952 -4.800777,-8.04907 1.885299,-0.0887 3.815372,-0.42641 5.398433,-1.42983 0.03917,-0.0248 0.07813,-0.0501 0.116867,-0.0757 1.057393,-0.65032 1.889482,-1.68212 2.164667,-2.84606 0,0 0,-1e-5 0,-1e-5 0.686746,-2.60361 -0.936579,-5.38166 -2.92149,-7.35801 0,0 -1e-6,0 -1e-6,0 -1.346814,-1.30689 -3.132215,-2.15702 -4.976999,-2.74803 -1.23769,-0.42956 -2.670124,-0.0977 -4.139668,0.30739 -0.150488,-0.24063 -0.303153,-0.4796 -0.45692,-0.71673 -0.153763,-0.23712 -0.308628,-0.4724 -0.463518,-0.70565 z m 3.19829,4.77563 c 0.698452,4.32219 -0.258146,8.57528 -1.068418,12.65209 -0.604607,2.5493 -1.249435,5.10271 -1.476834,7.62912 -0.136045,1.51146 -0.122685,3.01325 0.138079,4.4987 -0.105619,-2.67427 0.08019,-5.36687 0.761811,-7.94935 0,0 0,0 0,0 0.693885,-2.45342 1.835602,-4.86297 3.727284,-6.55046 -1.822885,1.76166 -2.84046,4.18336 -3.433788,6.62776 0,0 0,0 0,0 -0.670826,2.58582 -0.947807,5.2646 -1.04925,7.93322 0,0 0,0 0,0 -0.326131,-1.46413 -0.447877,-2.9463 -0.448899,-4.43063 -0.0018,-2.67455 0.388276,-5.35609 0.680937,-7.95167 0.606343,-3.99056 1.359182,-8.0077 0.659675,-11.7618 0.252975,-0.10919 0.50526,-0.22179 0.756834,-0.33792 0.251574,-0.11613 0.502438,-0.23578 0.752569,-0.35906 z"
       id="path7665"
       inkscape:connector-curvature="0"
       inkscape:path-effect="#path-effect7673"
       inkscape:original-d="m 44.717159,167.45852 c 2.13673,-0.60159 3.504664,-0.86785 5.071018,-0.34574 1.634178,0.54472 3.995918,1.80615 5.186267,2.9965 4.820007,4.82001 4.69737,12.21655 -5.071017,12.21655 2.508375,3.92601 6.616124,12.50108 10.94879,13.9453 m -13.9453,-24.66359 c 1.393989,7.47053 -3.067099,17.39561 -1.613505,24.66359 0,-5.10574 0.94122,-11.22559 4.494766,-14.52155"
       transform="matrix(0.47548265,0,0,0.32640507,34.493148,227.07053)"
       sodipodi:nodetypes="ccsccccc" />
    <path class="path"
       style="fill:none;stroke:#FFFFFF;stroke-width:2;stroke-linecap:butt;stroke-linejoin:miter;stroke-miterlimit:4"
       d="m 68.455957,197.72137 c 2.913676,-4.86988 5.372812,-10.04454 7.889836,-15.19811 2.517024,-5.15357 5.091936,-10.28604 8.237162,-15.07153 -2.887348,4.87488 -5.18711,10.0359 -7.43483,15.23974 -2.247721,5.20383 -4.443399,10.45048 -7.122579,15.49662 -0.261993,-0.0768 -0.523792,-0.15408 -0.785392,-0.23186 -0.261599,-0.0778 -0.522999,-0.15607 -0.784197,-0.23486 z"
       id="path7675"
       inkscape:connector-curvature="0"
       inkscape:path-effect="#path-effect7683"
       inkscape:original-d="m 69.150245,198.11513 c 5.97004,-10.52663 9.992685,-21.93521 15.443557,-30.65661"
       transform="matrix(0.47548265,0,0,0.32640507,34.493148,226.55236)"
       sodipodi:nodetypes="cc" />
    <path class="path"
       style="fill:none;stroke:#FFFFFF;stroke-width:2;stroke-linecap:butt;stroke-linejoin:miter;stroke-miterlimit:4"
       d="m 84.980459,167.12632 c 2.091169,4.9299 4.002722,9.92962 5.74311,14.98371 1.740389,5.05409 3.309614,10.16254 4.716126,15.30991 -1.646983,-5.01601 -3.448603,-9.97807 -5.410696,-14.87013 -1.962092,-4.89207 -4.084658,-9.71414 -6.373536,-14.4502 0.22104,-0.16186 0.441976,-0.3239 0.662808,-0.48611 0.220833,-0.16222 0.441563,-0.32461 0.662188,-0.48718 z m -8.401319,15.54952 c 2.65611,0.30615 5.299751,0.74324 7.896296,1.34419 2.596546,0.60094 5.145996,1.36575 7.613723,2.32733 -2.525817,-0.69837 -5.091151,-1.19184 -7.673498,-1.5209 -2.582348,-0.32907 -5.18171,-0.49372 -7.775585,-0.53443 -0.0096,-0.26938 -0.01948,-0.53875 -0.02964,-0.80811 -0.01015,-0.26937 -0.02059,-0.53872 -0.0313,-0.80808 z"
       id="path7685"
       inkscape:connector-curvature="0"
       inkscape:path-effect="#path-effect7693"
       inkscape:original-d="m 84.24805,167.45852 c 4.375854,9.64764 8.360424,20.56889 11.17929,29.96511 m -18.901067,-13.9453 c 5.454212,0.35932 10.6522,1.24573 15.558806,2.88126"
       transform="matrix(0.47548265,0,0,0.32640507,34.493148,226.72507)"
       sodipodi:nodetypes="cccc" />
    <path class="path"
       style="fill:none;stroke:#FFFFFF;stroke-width:2;stroke-linecap:butt;stroke-linejoin:miter;stroke-miterlimit:4;paint-order:stroke fill markers"
       d="m 119.59718,192.51145 c -6.02349,1.5871 -12.23215,1.97311 -18.30361,2.37769 1.10291,-1.6325 2.21133,-3.25509 3.32526,-4.86778 1.75475,-2.54044 3.52319,-5.0563 5.3053,-7.54758 3.05043,-3.89368 6.10014,-7.78639 9.14915,-11.67815 -2.916,3.99246 -5.83126,7.98391 -8.74578,11.97436 -1.69606,2.40151 -3.40561,4.77878 -5.12865,7.13181 -1.17465,1.60414 -2.35558,3.19701 -3.54278,4.77862 5.81973,-0.69694 11.61551,-1.5121 16.9797,-3.52986 0.15391,0.22216 0.31096,0.44666 0.47118,0.67348 0.16023,0.22682 0.32363,0.45596 0.49023,0.68741 z M 102.44246,168.0805 c 2.81051,-0.69835 5.65766,-0.27611 8.25456,0.56016 0.0611,0.0197 0.12199,0.0395 0.18277,0.0597 2.51702,0.82365 4.88856,1.93838 7.46941,2.35451 -2.60992,-0.15454 -5.15397,-1.03604 -7.6788,-1.59318 -0.0332,-0.007 -0.0664,-0.0143 -0.0997,-0.0214 -2.55383,-0.5428 -5.21235,-0.68942 -7.50755,0.13236 -0.099,-0.24978 -0.20024,-0.49902 -0.30368,-0.74771 -0.10344,-0.24869 -0.20911,-0.49683 -0.31702,-0.74441 z"
       id="path7705"
       inkscape:connector-curvature="0"
       inkscape:path-effect="#path-effect7713"
       inkscape:original-d="m 119.3495,191.74632 c -5.15913,1.67007 -12.1392,2.5044 -17.8739,3.03801 l 8.6563,-12.15798 8.95165,-11.82292 m -16.40577,-1.9539 c 5.76866,-1.76523 10.59769,1.65454 15.66999,2.21813"
       transform="matrix(0.52193788,0,0,0.35829524,28.861605,221.30741)"
       sodipodi:nodetypes="cccccc" />
    <path class="path"
       style="fill:none;stroke:#FFFFFF;stroke-width:0.76150978;stroke-linecap:butt;stroke-linejoin:miter;stroke-miterlimit:4"
       d="m 95.17536,236.19296 c 1.255757,-1.78172 2.029496,-3.8886 2.618026,-6.02981 0,0 0,0 0,0 0.689351,-2.51657 1.096938,-5.11172 1.384082,-7.71851 0.01708,-0.15514 0.03371,-0.31033 0.04988,-0.46557 0.519065,-4.98141 0.578006,-10.00928 0.630033,-15.02805 0.05371,4.96541 0.101045,9.94 -0.299457,14.89794 -0.01692,0.20945 -0.03464,0.41887 -0.05319,0.62826 0,0 0,0 0,0 -0.232229,2.62247 -0.587725,5.24528 -1.231737,7.81185 -0.519495,2.07801 -1.226526,4.15292 -2.39282,5.99036 -0.118221,-0.0119 -0.23608,-0.025 -0.353556,-0.0394 -0.117476,-0.0144 -0.23457,-0.0301 -0.351264,-0.0471 z"
       id="path7719"
       inkscape:connector-curvature="0"
       inkscape:path-effect="#path-effect7727"
       inkscape:original-d="m 95.436858,236.37253 c 4.51467,-6.57459 4.425612,-20.71542 4.425612,-29.4215"
       transform="matrix(0.47548265,0,0,0.32640507,34.493148,213.77086)"
       sodipodi:nodetypes="cc" />
    <path class="path"
       style="fill:none;stroke:#FFFFFF;stroke-width:2.20000005;stroke-linecap:butt;stroke-linejoin:miter;stroke-miterlimit:4"
       d="m 131.2896,167.6741 c 0.24458,4.84642 1.00998,9.67576 2.02223,14.48809 1.01226,4.81232 2.27136,9.60765 3.50335,14.38605 -1.59261,-4.61548 -3.21411,-9.24309 -4.60659,-13.94569 -1.39248,-4.70261 -2.55592,-9.48022 -3.2324,-14.39571 0.38519,-0.0905 0.77057,-0.18014 1.15613,-0.26893 0.38557,-0.0888 0.77133,-0.17673 1.15728,-0.26381 z m 20.61653,2.30104 c -1.96075,4.91823 -4.23222,9.69535 -6.78049,14.30643 -2.54827,4.61107 -5.37334,9.05611 -8.44129,13.31015 2.71069,-4.42524 5.15827,-8.99979 7.3161,-13.69275 2.15783,-4.69296 4.0259,-9.50435 5.57758,-14.40326 0.38772,0.0809 0.77559,0.16136 1.16361,0.24126 0.38802,0.0799 0.77618,0.1593 1.16449,0.23817 z"
       id="path7739"
       inkscape:connector-curvature="0"
       inkscape:path-effect="#path-effect7747"
       inkscape:original-d="m 130.11782,167.78131 c 0.84017,9.18284 4.04602,19.99475 6.67929,28.77234 m 14.00083,-26.97407 c -3.55159,9.95002 -8.29235,19.24627 -14.12928,28.00166"
       transform="matrix(0.47548265,0,0,0.32640507,34.493148,226.03418)"
       sodipodi:nodetypes="cccc" />
    <path class="path"
       style="fill:none;stroke:#FFFFFF;stroke-width:1.01534629;stroke-linecap:butt;stroke-linejoin:miter;stroke-miterlimit:4"
       d="m 118.95372,233.86103 c 0.298,-5.16034 2.35295,-9.95069 4.43059,-14.56381 0.0121,-0.0269 0.0242,-0.0538 0.0363,-0.0807 2.05985,-4.58933 4.2931,-9.17939 4.92621,-14.16326 -0.47029,4.97755 -2.54719,9.66763 -4.45342,14.28774 -0.009,0.0224 -0.0185,0.0448 -0.0277,0.0673 -1.88959,4.60199 -3.75436,9.31963 -3.92895,14.17677 -0.16388,0.0436 -0.32774,0.0883 -0.49158,0.13432 -0.16384,0.046 -0.32765,0.0932 -0.49144,0.14163 z"
       id="path7749"
       inkscape:connector-curvature="0"
       inkscape:path-effect="#path-effect7757"
       inkscape:original-d="m 119.43812,233.88041 c 0.40185,-10.04614 7.84581,-19.19032 8.91647,-28.82626"
       sodipodi:nodetypes="cc"
       transform="matrix(0.47548265,0,0,0.32640507,34.493148,213.77086)" />
    <path class="path"
       style="fill:none;stroke:#FFFFFF;stroke-width:2.0999999;stroke-linecap:butt;stroke-linejoin:miter;stroke-miterlimit:4"
       d="m 170.87821,196.55887 c -1.73609,-0.17108 -3.37709,-0.82335 -4.76447,-1.8042 -1.45129,-1.02896 -2.63231,-2.35269 -3.56988,-3.79154 0,0 0,0 0,0 -2.05863,-3.15203 -3.14071,-6.84596 -3.36451,-10.53802 0,0 0,0 0,0 -0.23629,-3.49719 0.34299,-7.20981 2.3634,-10.17655 0.94904,-1.37973 2.24108,-2.52354 3.75238,-3.25397 1.1832,-0.55995 2.45368,-0.86546 3.73264,-0.97337 0.62067,-0.0524 1.24334,-0.0582 1.85899,-0.024 1.48096,0.26488 2.85178,0.94011 3.99572,1.86445 1.21493,0.9892 2.18869,2.22477 2.96576,3.54855 1.74226,2.96535 2.61979,6.36353 2.84677,9.7541 0,0 0,0 0,0 0.22442,3.26148 -0.14286,6.64913 -1.62275,9.56546 -0.64538,1.2714 -1.53186,2.43538 -2.6679,3.29343 -1.15563,0.87161 -2.55697,1.38655 -3.98591,1.52635 1.42469,-0.17804 2.80173,-0.72922 3.91518,-1.61758 1.0965,-0.87411 1.93274,-2.04095 2.53313,-3.30332 1.38069,-2.90207 1.63821,-6.2283 1.33991,-9.42499 -0.3157,-3.32131 -1.25944,-6.60639 -3.00928,-9.39895 -0.77894,-1.24189 -1.72239,-2.37941 -2.86196,-3.25135 -1.04755,-0.80773 -2.27376,-1.38111 -3.54932,-1.56882 -0.43661,-0.0101 -0.87396,5.7e-4 -1.30774,0.0345 -1.29531,0.10136 -2.55881,0.41054 -3.676,0.99688 -1.30189,0.66775 -2.40745,1.70953 -3.20762,2.93847 -1.75789,2.66824 -2.15079,6.08953 -1.87961,9.35591 0,0 0,0 0,0 0.31209,3.45028 1.40254,6.84462 3.3455,9.63145 0,0 0,0 0,0 0.88075,1.25974 1.93071,2.38588 3.16215,3.19721 0.95105,0.62846 2.02075,1.07417 3.11458,1.25977 0.055,0.36103 0.12719,0.7222 0.21711,1.08255 0.0899,0.36035 0.19761,0.71986 0.32373,1.07757 z"
       id="path7759"
       inkscape:connector-curvature="0"
       inkscape:path-effect="#path-effect7767"
       inkscape:original-d="m 170.96428,195.52607 c -12.5765,-1.04804 -16.75903,-29.69786 -0.12845,-29.02924 11.12092,1.82894 13.96193,27.66053 1.58079,29.03621"
       transform="matrix(0.47461555,0.01970345,-0.02870252,0.32580983,39.852363,222.96576)"
       sodipodi:nodetypes="ccc" />
    <path class="path"
       style="fill:none;stroke:#FFFFFF;stroke-width:1.02549982;stroke-linecap:butt;stroke-linejoin:miter;stroke-miterlimit:4"
       d="m 149.73086,206.03996 c 2.93673,-0.87917 5.95748,-1.23133 8.94464,-1.55352 0.0105,-0.001 0.021,-0.002 0.0315,-0.003 2.98137,-0.32275 5.96696,-0.53738 8.95184,-0.74826 -2.94597,0.38537 -5.8922,0.77448 -8.81584,1.26705 -0.021,0.004 -0.042,0.007 -0.0631,0.0106 -2.90709,0.49234 -5.81652,1.00483 -8.53502,1.98145 -0.0845,-0.15946 -0.16952,-0.31869 -0.2552,-0.47768 -0.0857,-0.159 -0.17198,-0.31776 -0.25891,-0.47628 z"
       id="path7769"
       inkscape:connector-curvature="0"
       inkscape:path-effect="#path-effect7777"
       inkscape:original-d="m 149.89885,206.54622 c 4.57489,-1.51808 13.09162,-2.33601 17.76087,-2.80293"
       sodipodi:nodetypes="cc"
       transform="matrix(0.47548265,0,0,0.32640507,34.493148,213.77086)" />
    <path class="path"
       style="fill:none;stroke:#FFFFFF;stroke-width:2;stroke-linecap:butt;stroke-linejoin:miter;stroke-miterlimit:4"
       d="m 186.93049,169.16572 c 3.65619,-0.22029 7.256,-0.36317 10.58559,-1.31473 0.16946,1.18059 0.26171,2.34027 0.33807,3.47964 0,0 0,10e-6 0,10e-6 -0.0868,1.69066 -0.21616,3.37712 -0.37749,5.05883 0,0 0,0 0,0 -0.22794,2.37894 -0.51618,4.7549 -0.89168,7.11644 -0.29859,1.87783 -0.65235,3.74654 -1.07483,5.60037 0,1e-5 0,1e-5 0,1e-5 -0.87153,3.84578 -1.94873,7.76912 -4.15426,11.06365 0,0 0,0 0,0 -0.80585,1.20701 -1.81789,2.33513 -3.12408,2.98107 -1.21319,0.59666 -2.64538,0.63607 -3.91275,0.22271 1.2797,0.37351 2.6956,0.28482 3.85573,-0.33408 1.25811,-0.66857 2.20383,-1.80345 2.96264,-3.01139 2.07532,-3.31139 2.99896,-7.20119 3.75593,-11.05269 0,0 0,0 0,0 0.34395,-1.76152 0.62539,-3.53399 0.85643,-5.31356 0.31701,-2.44174 0.53911,-4.89684 0.69758,-7.3554 0,0 0,0 0,0 0.10762,-1.67288 0.18334,-3.34635 0.21662,-5.01886 0.15106,-0.95484 0.30862,-1.89141 0.41155,-2.80456 -3.10788,1.18715 -6.34166,1.67664 -9.44943,2.20194 -0.10637,-0.24716 -0.21743,-0.4974 -0.33332,-0.75065 -0.11589,-0.25325 -0.23661,-0.50952 -0.3623,-0.76875 z"
       id="path7779"
       inkscape:connector-curvature="0"
       inkscape:path-effect="#path-effect7787"
       inkscape:original-d="m 187.02027,169.96492 c 3.33767,-0.37493 7.37415,-0.83104 10.27584,-1.79827 0.16456,5.16871 -1.44116,38.76103 -12.97324,35.19475"
       sodipodi:nodetypes="ccc"
       transform="matrix(0.47548265,0,0,0.32640507,34.493148,225.68873)" />
    <path class="path"
       style="fill:none;stroke:#FFFFFF;stroke-width:1.53317297;stroke-linecap:butt;stroke-linejoin:miter;stroke-miterlimit:4"
       d="m 171.42836,235.56378 c 0.22828,-5.46441 1.40587,-10.87279 3.3941,-15.94159 0.0105,-0.0267 0.021,-0.0534 0.0315,-0.08 1.98019,-5.04118 4.8942,-9.9971 9.45779,-12.87721 -4.46703,2.97558 -7.20296,7.92179 -9.0548,12.93741 -0.0101,0.0272 -0.0201,0.0544 -0.0301,0.0816 -1.82641,4.99165 -2.86019,10.27162 -2.98954,15.56074 -0.135,0.0522 -0.26992,0.10486 -0.40474,0.15804 -0.13483,0.0532 -0.26957,0.10683 -0.40421,0.161 z"
       id="path7789"
       inkscape:connector-curvature="0"
       inkscape:path-effect="#path-effect7797"
       inkscape:original-d="m 171.8271,235.57565 c 0.28114,-9.44056 4.13026,-23.48917 12.48809,-28.90532"
       sodipodi:nodetypes="cc"
       transform="matrix(0.47527651,0.01399968,-0.00961037,0.32626356,37.179133,210.80892)" />
    <path class="path"
       style="fill:none;stroke:#FFFFFF;stroke-width:1;stroke-linecap:butt;stroke-linejoin:miter;stroke-miterlimit:4"
       d="m 60.273765,235.06387 c 1.158161,0.73494 2.474499,1.26196 3.857685,1.4971 0.06632,0.0113 0.132785,0.0219 0.199399,0.0318 1.316118,0.17881 2.803256,0.10315 3.77611,-0.86144 -0.837568,1.08461 -2.403266,1.44321 -3.820455,1.40217 -0.05528,-9.1e-4 -0.110585,-0.002 -0.165894,-0.004 -1.466571,-0.0474 -2.938868,-0.40268 -4.303967,-1.02414 0.07482,-0.17426 0.150322,-0.34818 0.226509,-0.52176 0.07619,-0.17357 0.15306,-0.3468 0.230613,-0.51967 z"
       id="path7799"
       inkscape:connector-curvature="0"
       inkscape:path-effect="#path-effect7807"
       inkscape:original-d="m 60.002747,235.56165 c 2.391029,1.30181 6.387065,2.11897 8.111004,0.17571"
       transform="matrix(0.47548265,0,0,0.32640507,34.493148,214.11631)"
       sodipodi:nodetypes="cc" />
  </g>
</svg>
